<svg version="1.1" xmlns="http://www.w3.org/2000/svg" xmlns:xlink="http://www.w3.org/1999/xlink" xmlns:i="http://ns.adobe.com/AdobeIllustrator/10.0/" xmlns:sketch="http://www.bohemiancoding.com/sketch/ns" height="100%" width="100%" x="0px" y="0px" viewBox="0 0 640 480" xml:space="preserve" preserveAspectRatio="xMidYMid meet" class="">{{text2Gradient}}<defs><linearGradient id="sloganGradient77591777"><stop offset="0.05" stop-color="#B68648"></stop><stop offset="0.95" stop-color="#FBF3A3"></stop></linearGradient></defs><defs><linearGradient id="iconGradient77591777"><stop offset="0.05" stop-color="#B68648"></stop><stop offset="0.95" stop-color="#FBF3A3"></stop></linearGradient></defs><defs><linearGradient id="frameGradient77591777"><stop offset="0.05" stop-color="#B68648"></stop><stop offset="0.95" stop-color="#FBF3A3"></stop></linearGradient></defs><defs><linearGradient id="iconFrameGradient77591777"><stop offset="0.05" stop-color="#B68648"></stop><stop offset="0.95" stop-color="#FBF3A3"></stop></linearGradient></defs><rect x="0px" y="0px" width="100%" height="100%" fill="transparent"></rect><g class="logo-container-box logoContainerBox" transform="scale(0.99) translate(3.2323461205068043,2.424234794847905)"><g class="containerBody" transform="scale(1.117431540728556) translate(-33.62898903733941,-12.131791216481133)"><g class="sampleIconBox" transform="scale(0.7558741255515042) translate(103.35091145833331,74.41266998291013)"><g class="iconFrame" transform="scale(1) translate(219.9944207072258,34.42050590515137)" fill="#ffbd39"><g>
	<path class="st0" d="M171.7,47.4c1,1.5,1.6,2.5,1.6,2.5C173.2,49.4,172.6,48.5,171.7,47.4z"></path>
	<path class="st0" d="M152.3,26.9c0.1,0.1,14.5,14.3,19.4,20.5C168.7,43,161.7,33.6,152.3,26.9z"></path>
	<path class="st0" d="M197.3,87c0,0,4.6,30.7-7.2,53.2s-23.2,38.7-58.3,51c0,0-17.3,5.3-35.7,3.5c-0.8-0.1-1.5-0.2-2.3-0.3l1-0.5
		c0,0-15,0.7-37.5-12.1c7.3,4,27.1,12.9,53.1,10.1c33.1-3.6,55.9-27.1,55.9-27.1s18.5-14.5,25.7-41.4c7.2-26.9,1.4-41.6,1.4-41.6
		s4.1,15.9-2.9,41.7s-24.1,40.4-24.1,40.4s24.4-26.6,22.6-60.6c0,0,0.4,33.6-23.5,60.5s-57.9,26.4-59.8,26.4s-27.8,1.2-50.6-11.5
		l-1.1,0.4c0,0-26.2-13.4-37.2-45.3s-1.7-67,7.7-80.5s21.2-25.7,30.7-31S82.4,8.5,102.4,8.7c1.4,0,2.8,0.1,4.2,0.1
		c11.6,1.3,28.3,5.6,45.6,18.2l-0.3-0.4c0,0-13.5-11.3-27.3-14.8c-4.4-1.1-7.9-2-11.2-2.6c14.5,1,26.5,4.3,43.2,14.4
		c0,0-18.5-15.9-44.4-15.2c-1.1,0.1-2.1,0.1-3.1,0.1c-5.5-0.8-11.2-0.8-20.5-0.2c-17.2,1.2-30.6,6.5-33,7.8c0,0,12.4-10.5,42.3-11.5
		s50.8,11,58.7,17.8c0,0-20.8-19.2-51.6-18.3S63.4,10,50.7,17.5S23.6,37.9,16.4,49.3C9.2,60.6,2.9,75.2,1.1,92.3
		c-1.7,17.1,3.9,40.3,5.7,44.6c1.8,4.3,15.5,38.4,53.7,53.1c0,0,10.9,6,28.9,5.9s37.2,2.2,62.2-12.2s35.6-32.9,41.7-48.3
		C199.4,119.9,200.9,98.3,197.3,87z M35.8,30.5c15-13.2,30-17.4,37.3-19.3s17.8-2.6,17.8-2.6s5-0.8,13.2-0.1
		c-18.6,0.5-22.5,0.9-32,4.6C61.3,17.3,48.6,23.5,35.5,37s-23.3,35.6-25,56.4C9,111.4,14,133.5,19,143.5
		c-3.3-5.5-8.8-16.4-10.1-28.2C7.1,98.5,7.5,80.5,10.7,72C14,63.6,20.8,43.8,35.8,30.5z M61,188.9c-22.2-7.9-46.3-31.5-52.5-52.3
		s-9.2-43.7-2.3-62.8s15.5-31.3,23.7-38.6c0,0-21.6,23.7-23.3,53.1s3.1,50.7,27.1,76.7s49.9,29.2,49.9,29.2l4.6,0.7
		C83,194.6,73.9,193.5,61,188.9z"></path>
	<path class="st0" d="M179,46.3c-0.2-0.5-0.8-2.2-0.8-2.2c0.8,0.3,5.1,6.1,5.1,6.1c-6.2-10.7-15.5-18.8-21.1-22.9
		C169.2,33.6,179,46.3,179,46.3z"></path>
	<path class="st0" d="M157.6,24.1c0,0,1.8,1.1,4.6,3.2C160.4,25.7,158.8,24.6,157.6,24.1z"></path>
	<circle class="st0" cx="179.4" cy="60" r="1.3"></circle>
	<circle class="st0" cx="187.8" cy="80.1" r="1.3"></circle>
	<circle class="st0" cx="196.5" cy="77.9" r="0.8"></circle>
	<circle class="st0" cx="186.2" cy="66.2" r="0.7"></circle>
	<circle class="st0" cx="184.6" cy="55.6" r="0.5"></circle>
	<circle class="st0" cx="189.2" cy="75.6" r="1.5"></circle>
</g></g><g class="sampleIcons_1" transform="scale(0.49576126238779067) translate(543.751696483612,323.17322927856446)" fill="#ffbd39"><path d="M69.58-104.15L50.68-104.15L7.32 0L25.56 0L38.96-32.23L94.78 0L113.01 0L69.58-104.15ZM83.79-26.37L45.70-48.34L60.13-83.06L83.79-26.37ZM127.66-17.36L127.66 0L145.02 0L145.02-17.36L127.66-17.36ZM159.67-17.36L159.67 0L177.03 0L177.03-17.36L159.67-17.36ZM191.67-17.36L191.67 0L209.03 0L209.03-17.36L191.67-17.36Z"></path></g></g><g class="sampleTexts_1" transform="scale(1) translate(-0.0000152587890625,-17.459997558593756)"><g class="logo--name svgLogoName_1 logoNameBox" transform="scale(1) translate(179.4249975681305,325.960001373291)" fill="#ffffff"><path d="M17.98 0.44C19.02 0.44 20.06 0.32 21.14 0.12C24.62-0.56 27.99-1.64 31.15-3.12C31.91-3.44 32.35-3.84 32.47-4.28C32.59-4.76 32.67-5.13 32.67-5.33C32.67-5.81 32.51-6.25 32.23-6.73C31.35-7.93 30.11-8.57 28.59-8.57C28.27-8.57 27.95-8.53 27.63-8.45C25.58-7.85 23.22-7.33 20.46-6.97C20.14-6.85 19.50-6.81 18.54-6.81L18.06-6.81C18.10-6.81 18.14-6.81 18.14-6.85C18.06-6.89 17.98-6.93 17.82-6.93C17.70-6.97 17.58-6.97 17.50-7.01C17.38-7.05 17.22-7.09 17.02-7.13L16.74-7.25L16.38-7.65C16.22-7.81 16.10-7.93 16.06-8.01C16.02-8.09 16.02-8.17 15.98-8.21C15.94-8.25 15.90-8.29 15.90-8.33C15.70-8.73 15.54-9.13 15.38-9.57L15.05-10.37C15.05-10.49 15.01-10.61 14.97-10.73C14.73-11.57 14.45-12.85 14.21-14.61C13.97-16.50 13.81-18.34 13.77-20.22L16.14-20.14C17.38-20.06 18.62-19.98 19.82-19.98C21.58-19.98 23.34-20.10 25.10-20.30C26.27-20.54 26.95-20.90 27.07-21.42C27.19-21.90 27.27-22.26 27.27-22.46C27.27-23.06 27.07-23.66 26.67-24.22C26.15-25.02 25.38-25.50 24.38-25.71C22.58-25.91 20.78-26.03 18.98-26.03C17.74-26.03 16.02-25.95 13.77-25.83L13.81-26.83C14.25-34.03 15.29-40.80 16.94-47.05C17.54-49.09 17.94-50.45 18.22-51.13C18.42-51.57 18.58-52.01 18.70-52.45C24.46-52.17 27.59-52.01 28.11-52.01C29.27-52.01 30.39-52.05 31.55-52.17C32.23-52.25 32.75-52.53 33.19-53.05C33.63-53.53 33.83-54.05 33.83-54.65C33.83-55.37 33.47-56.05 32.75-56.66C31.55-57.66 28.71-58.14 24.22-58.14C23.62-58.14 20.62-58.22 15.21-58.42L13.85-58.46C13.45-58.46 13.05-58.38 12.65-58.26L12.45-58.26C10.53-58.26 9.25-57.58 8.61-56.25C5.25-48.89 3.36-39.60 2.92-28.47C2.80-26.79 2.76-25.14 2.76-23.50C2.76-15.90 3.72-10.21 5.69-6.45C6.77-4.28 8.53-2.52 10.93-1.20C13.25-0.12 15.58 0.44 17.98 0.44ZM16.94-6.97L16.74-7.21C16.90-7.13 16.94-7.05 16.94-7.01ZM9.53-28.03C8.77-28.03 8.41-28.39 8.41-29.15C8.41-29.91 8.77-30.31 9.53-30.31C10.25-30.31 10.61-29.91 10.61-29.15C10.61-28.39 10.25-28.03 9.53-28.03ZM9.69-32.87C9.21-32.87 8.93-33.15 8.85-33.67C8.77-34.43 8.73-35.19 8.73-35.96C8.73-37.88 9.01-40.44 9.61-43.64C10.21-47.57 11.13-50.69 12.41-53.09C12.61-53.37 12.81-53.53 13.09-53.53C13.37-53.53 13.61-53.45 13.77-53.25C13.93-53.09 14.01-52.89 14.01-52.65C14.01-52.57 13.73-51.57 13.13-49.65C11.77-45.52 11.01-41.48 10.85-37.52C10.77-36.24 10.65-34.95 10.53-33.67C10.45-33.15 10.17-32.87 9.69-32.87ZM16.58-7.33L16.26-7.49ZM56.29 0.24C56.89 0.24 57.50 0.20 58.10 0.16C61.26-0.16 64.34-0.80 67.26-1.72C68.63-2.20 69.31-2.88 69.31-3.80L69.31-3.84C69.31-4.76 68.95-5.53 68.19-6.13C67.42-6.73 66.62-7.01 65.82-7.01C65.50-7.01 65.14-6.97 64.78-6.89C61.82-6.01 59.30-5.57 57.17-5.57C56.73-5.57 56.29-5.61 55.85-5.65C55.41-5.69 55.05-5.69 54.81-5.69C54.45-5.69 53.93-5.77 53.25-5.97L53.13-5.97L52.81-6.13C52.25-6.33 51.89-6.57 51.69-6.85L51.69-6.97C51.57-7.25 51.49-7.49 51.49-7.69L51.45-7.81L51.45-7.65L51.41-7.65L51.33-7.97C50.93-10.49 50.73-12.05 50.69-12.61L50.65-17.06L50.73-18.70C50.73-18.90 50.73-19.10 50.77-19.22C50.77-19.58 50.77-19.82 50.81-19.86C50.81-20.42 50.85-20.98 50.89-21.50C51.49-30.63 52.89-39.32 55.09-47.53C55.97-50.89 56.41-52.89 56.41-53.49C56.41-54.69 55.89-55.65 54.85-56.42C53.69-57.26 52.25-57.70 50.53-57.70C48.89-57.66 47.69-57.06 46.84-55.81C45.72-53.85 44.84-51.77 44.24-49.49C42.28-42.20 41.04-34.63 40.52-26.79C40.40-25.10 40.32-23.34 40.32-21.50C40.32-20.14 40.36-18.74 40.44-17.30C40.76-9.29 43.60-3.96 48.97-1.28C51.33-0.28 53.77 0.24 56.29 0.24ZM45.60-26.19C45.08-26.19 44.76-26.47 44.60-27.03L44.60-27.27C44.60-27.51 44.68-27.75 44.84-27.99C45.00-28.23 45.24-28.35 45.60-28.35C45.96-28.35 46.20-28.23 46.36-27.99C46.56-27.79 46.64-27.55 46.64-27.31C46.64-26.99 46.52-26.71 46.28-26.51C46.04-26.31 45.84-26.19 45.60-26.19ZM45.92-31.23C45.24-31.23 44.84-31.55 44.80-32.19C44.96-35.75 45.48-39.24 46.40-42.68C47.21-46.17 48.41-49.49 50.01-52.69C50.21-53.01 50.45-53.17 50.77-53.17C51.09-53.17 51.33-53.09 51.53-52.89C51.73-52.69 51.81-52.49 51.81-52.29C51.81-52.05 51.65-51.57 51.33-50.73C50.25-47.89 49.29-45.00 48.49-42.08C47.81-38.96 47.25-35.83 46.84-32.67C46.76-31.79 46.60-31.35 46.36-31.31C46.16-31.23 46.00-31.23 45.92-31.23ZM50.65-17.18L50.65-17.34L50.69-17.34ZM93.73 0C96.89 0 99.70-0.80 102.14-2.40C104.78-4.12 106.90-6.41 108.46-9.25C110.03-12.09 110.91-15.17 111.11-18.42L111.11-18.62C111.11-19.02 111.03-19.42 110.91-19.78C110.71-20.86 110.23-21.82 109.42-22.66C108.62-23.50 107.66-24.02 106.58-24.30C105.30-24.58 103.98-24.74 102.62-24.74C101.38-24.74 99.58-24.62 97.13-24.38C96.21-24.34 95.41-24.06 94.77-23.62C94.13-23.14 93.81-22.58 93.81-21.90C93.81-21.66 93.85-21.38 93.93-21.10C94.49-19.42 95.89-18.58 98.13-18.58L98.93-18.62C100.46-18.78 101.98-18.86 103.54-18.86C103.18-15.98 102.26-13.37 100.82-11.01C99.33-8.65 97.09-7.21 94.01-6.69L92.73-6.65L92.57-6.73L91.93-6.81C91.89-6.85 91.85-6.85 91.73-6.89C90.85-7.33 90.01-8.09 89.21-9.13C88.16-10.65 87.40-13.05 86.92-16.34C86.56-18.74 86.36-21.14 86.36-23.54C86.36-27.91 86.96-32.23 88.20-36.52C89.08-39.88 90.45-43.04 92.29-45.96C93.33-47.53 94.41-48.57 95.53-49.13L96.01-49.33C96.05-49.37 96.13-49.41 96.21-49.45C96.29-49.49 96.37-49.49 96.41-49.49C96.45-49.49 96.53-49.53 96.57-49.57L97.41-49.73C97.53-49.73 97.65-49.73 97.69-49.77C97.81-49.73 98.09-49.73 98.53-49.73C98.57-49.69 98.65-49.69 98.73-49.69C99.05-49.61 99.25-49.57 99.33-49.53C99.42-49.49 99.54-49.45 99.66-49.41L99.94-49.25C100.26-49.01 100.46-48.89 100.50-48.85C100.54-48.81 100.58-48.81 100.62-48.77C100.66-48.73 100.70-48.61 100.82-48.49C100.90-48.37 101.02-48.25 101.10-48.13L101.14-48.09C101.18-48.01 101.22-47.89 101.34-47.73C101.74-46.89 101.98-45.72 101.98-44.24C101.98-43.48 101.90-42.76 101.78-42.00L101.66-40.56C101.66-38.76 102.54-37.60 104.30-37.08C104.78-36.92 105.30-36.84 105.82-36.84C107.26-36.84 108.26-37.32 108.82-38.24C109.95-40.36 110.51-42.52 110.51-44.76C110.51-47.09 109.79-49.29 108.38-51.41C107.30-52.89 105.98-54.05 104.38-54.97C102.06-56.21 99.42-56.86 96.41-56.86C93.73-56.86 91.13-56.29 88.64-55.09C85.00-53.13 82.20-49.85 80.20-45.28C77.11-38.40 75.55-31.27 75.55-23.90C75.55-21.90 75.67-19.90 75.91-17.86C76.51-13.17 78.27-9.13 81.28-5.73C84.28-2.32 88.16-0.40 93.01 0ZM82.20-31.03C81.56-31.03 81.28-31.35 81.28-32.03C81.28-32.67 81.56-32.99 82.20-32.99C82.84-32.99 83.16-32.67 83.16-32.03C83.16-31.35 82.84-31.03 82.20-31.03ZM82.52-35.51C81.92-35.51 81.64-35.79 81.64-36.36C81.88-38.72 82.48-41.12 83.48-43.56C84.48-45.96 85.80-48.09 87.52-49.97C89.21-51.85 91.25-53.17 93.61-53.93L93.93-53.97C94.17-53.97 94.37-53.89 94.49-53.73C94.65-53.53 94.69-53.33 94.69-53.13C94.69-52.69 94.49-52.41 94.09-52.21C88.52-49.89 84.96-44.52 83.40-36.12C83.28-35.71 83.00-35.51 82.52-35.51ZM131.25 0.44C134.17 0.44 136.65-0.04 138.69-1.00C140.81-2.08 142.54-3.52 143.86-5.41C145.50-7.77 146.34-10.57 146.34-13.81C146.34-17.98 145.06-21.30 142.50-23.78C142.30-23.98 142.10-24.14 141.90-24.30C145.50-26.27 148.46-28.91 150.82-32.23C153.55-36.08 154.95-40.36 154.95-45.04C154.95-48.41 154.03-51.37 152.23-53.85C149.78-57.02 146.54-58.62 142.58-58.66C139.17-58.46 136.29-57.22 133.97-55.01C133.97-55.09 133.97-55.17 133.93-55.21C133.49-56.62 132.69-57.58 131.53-58.10C130.36-58.62 129.28-58.90 128.28-58.90C127.88-58.90 127.52-58.86 127.12-58.78C125.52-58.42 124.40-57.62 123.80-56.46C123.20-55.25 122.72-53.93 122.44-52.49L122.40-52.33C120.96-46.08 120.03-39.32 119.67-32.07C119.51-29.71 119.39-27.31 119.39-24.94C119.39-19.42 119.83-14.25 120.67-9.41C121.12-6.93 121.88-4.60 122.96-2.40C123.56-1.36 124.64-0.68 126.24-0.32C127.92 0.20 129.56 0.44 131.25 0.44ZM126-25.83C125.40-25.83 125.12-26.15 125.12-26.75C125.12-27.39 125.40-27.71 126-27.71C126.60-27.71 126.92-27.39 126.92-26.75C126.92-26.15 126.60-25.83 126-25.83ZM125.84-30.47C125.20-30.47 124.92-30.79 124.92-31.47C124.92-32.11 125.20-32.43 125.84-32.43C126.48-32.43 126.80-32.11 126.80-31.47C126.80-30.79 126.48-30.47 125.84-30.47ZM125.60-35.96C125.08-35.96 124.80-36.24 124.72-36.84L124.72-37.52C124.72-40.08 125.00-42.72 125.56-45.36C126.16-48.29 126.92-51.05 127.88-53.65C128.04-54.09 128.32-54.29 128.80-54.29C129.04-54.29 129.24-54.21 129.44-54.05C129.64-53.89 129.76-53.65 129.76-53.41C129.76-52.97 129.40-51.53 128.72-49.09C127.72-45.32 127.00-41.44 126.64-37.48C126.64-36.72 126.48-36.28 126.16-36.12C125.92-36.04 125.72-35.96 125.60-35.96ZM130.76-5.77L130.52-5.77L130.52-6.97C130.52-8.57 130.48-10.17 130.40-11.81C130.32-13.45 130.28-15.46 130.28-17.78L130.32-21.06C130.88-21.06 131.21-21.10 131.33-21.14C132.05-21.26 132.77-21.30 133.45-21.30C133.81-21.30 134.17-21.30 134.53-21.26C135.61-21.14 136.49-20.62 137.17-19.70C137.85-18.62 138.21-17.70 138.25-16.86C138.29-16.02 138.33-15.46 138.33-15.13C138.33-12.61 137.69-10.45 136.45-8.73C135.05-6.73 133.13-5.77 130.76-5.77ZM130.44-27.91C130.48-28.11 130.48-28.39 130.48-28.75C131.04-35.55 132.89-41.48 135.97-46.53C137.73-49.77 139.65-51.61 141.78-52.05C141.90-52.05 142.06-52.01 142.30-51.89C142.34-51.85 142.38-51.85 142.42-51.85C142.46-51.81 142.50-51.77 142.58-51.73C142.62-51.65 142.66-51.61 142.70-51.57L142.74-51.53C142.66-51.57 142.62-51.61 142.62-51.65C142.58-51.65 142.58-51.65 142.58-51.69L142.82-51.41C143.86-50.17 144.34-48.45 144.34-46.25L144.34-45.68C143.98-40.92 142.26-36.72 139.17-33.07C136.73-30.39 133.81-28.67 130.44-27.91ZM190.50 0.32C191.30 0.32 192.10 0.16 192.98-0.16C194.11-0.60 194.79-1.36 194.99-2.52L195.35-5.53C195.55-6.77 195.71-8.05 195.83-9.33L196.15-13.97C196.19-14.73 196.23-15.50 196.27-16.26C196.99-28.11 197.35-35.47 197.35-38.48C197.35-41.72 197.03-44.64 196.35-47.29C195.71-49.81 194.55-52.01 192.86-53.93C190.82-56.09 188.90-57.34 187.18-57.62C185.46-57.94 184.18-58.06 183.33-58.06C181.53-58.06 179.77-57.74 178.01-57.06C173.89-55.49 170.56-52.25 168.08-47.41C165.40-42.20 163.40-36.52 162.11-30.35C160.51-22.98 159.71-15.54 159.71-8.05C159.71-6.25 159.75-4.44 159.83-2.64C159.99-1.60 160.55-0.88 161.47-0.44C162.39 0 163.28 0.20 164.04 0.20C165.80 0.20 166.76-0.48 167.00-1.84C167.36-5.04 167.60-8.25 167.76-11.41C167.88-13.61 168.04-15.82 168.24-18.02C169.40-18.06 172.16-18.30 176.53-18.70C177.21-18.78 177.93-18.86 178.65-18.90C180.93-19.06 183.21-19.34 185.50-19.78C185.42-19.10 185.22-16.22 184.98-11.09L184.94-8.33L184.94-3.60C185.02-2.44 185.62-1.56 186.70-0.88C187.94-0.08 189.22 0.32 190.50 0.32ZM193.95-29.31C193.30-29.31 193.02-29.63 193.02-30.27C193.02-30.91 193.30-31.23 193.95-31.23C194.59-31.23 194.91-30.91 194.91-30.27C194.91-29.63 194.59-29.31 193.95-29.31ZM169.20-25.71C170.16-32.03 172.00-38.04 174.73-43.72C177.45-49.45 180.33-52.29 183.33-52.37C184.30-52.37 185.06-51.93 185.66-51.05C186.34-49.85 186.74-48.57 186.86-47.25C186.98-45.88 187.06-44.64 187.06-43.48C187.06-40.92 186.90-37.96 186.58-34.63C186.34-31.71 186.10-28.79 185.90-25.87C183.94-26.03 181.97-26.11 180.01-26.11C178.01-26.11 174.41-25.99 169.20-25.71ZM194.31-32.19C193.87-32.19 193.58-32.39 193.46-32.79C193.34-33.23 193.26-34.71 193.18-37.24C193.02-41.12 192.58-45.04 191.78-48.93C191.70-49.25 191.62-49.53 191.62-49.73C191.62-50.01 191.70-50.25 191.86-50.41C192.02-50.53 192.18-50.65 192.26-50.69C192.38-50.73 192.50-50.73 192.58-50.73C192.90-50.73 193.14-50.53 193.30-50.13C194.11-47.77 194.67-44.96 194.95-41.72C195.15-39.64 195.23-37.60 195.23-35.63L195.19-33.15C195.15-32.51 194.87-32.19 194.31-32.19ZM220.49 0.24C221.09 0.24 221.69 0.20 222.29 0.16C225.46-0.16 228.54-0.80 231.46-1.72C232.82-2.20 233.50-2.88 233.50-3.80L233.50-3.84C233.50-4.76 233.14-5.53 232.38-6.13C231.62-6.73 230.82-7.01 230.02-7.01C229.70-7.01 229.34-6.97 228.98-6.89C226.02-6.01 223.49-5.57 221.37-5.57C220.93-5.57 220.49-5.61 220.05-5.65C219.61-5.69 219.25-5.69 219.01-5.69C218.65-5.69 218.13-5.77 217.45-5.97L217.33-5.97L217.01-6.13C216.45-6.33 216.09-6.57 215.89-6.85L215.89-6.97C215.77-7.25 215.69-7.49 215.69-7.69L215.65-7.81L215.65-7.65L215.61-7.65L215.53-7.97C215.13-10.49 214.92-12.05 214.88-12.61L214.84-17.06L214.92-18.70C214.92-18.90 214.92-19.10 214.96-19.22C214.96-19.58 214.96-19.82 215.00-19.86C215.00-20.42 215.04-20.98 215.08-21.50C215.69-30.63 217.09-39.32 219.29-47.53C220.17-50.89 220.61-52.89 220.61-53.49C220.61-54.69 220.09-55.65 219.05-56.42C217.89-57.26 216.45-57.70 214.72-57.70C213.08-57.66 211.88-57.06 211.04-55.81C209.92-53.85 209.04-51.77 208.44-49.49C206.48-42.20 205.24-34.63 204.71-26.79C204.59-25.10 204.51-23.34 204.51-21.50C204.51-20.14 204.55-18.74 204.63-17.30C204.96-9.29 207.80-3.96 213.16-1.28C215.53-0.28 217.97 0.24 220.49 0.24ZM209.80-26.19C209.28-26.19 208.96-26.47 208.80-27.03L208.80-27.27C208.80-27.51 208.88-27.75 209.04-27.99C209.20-28.23 209.44-28.35 209.80-28.35C210.16-28.35 210.40-28.23 210.56-27.99C210.76-27.79 210.84-27.55 210.84-27.31C210.84-26.99 210.72-26.71 210.48-26.51C210.24-26.31 210.04-26.19 209.80-26.19ZM210.12-31.23C209.44-31.23 209.04-31.55 209.00-32.19C209.16-35.75 209.68-39.24 210.60-42.68C211.40-46.17 212.60-49.49 214.20-52.69C214.40-53.01 214.64-53.17 214.96-53.17C215.29-53.17 215.53-53.09 215.73-52.89C215.93-52.69 216.01-52.49 216.01-52.29C216.01-52.05 215.85-51.57 215.53-50.73C214.44-47.89 213.48-45.00 212.68-42.08C212.00-38.96 211.44-35.83 211.04-32.67C210.96-31.79 210.80-31.35 210.56-31.31C210.36-31.23 210.20-31.23 210.12-31.23ZM214.84-17.18L214.84-17.34L214.88-17.34ZM257.29 0.32L258.25 0.28C261.49-0.04 264.33-1.24 266.69-3.28C269.06-5.33 270.86-7.81 272.14-10.73C273.46-13.77 274.42-16.98 275.10-20.38C276.22-26.03 277.10-32.75 277.79-40.56L277.99-42.28C278.27-44.60 278.39-46.97 278.39-49.33L278.35-51.85C278.15-53.41 277.42-54.49 276.18-55.05C274.98-55.61 273.86-55.85 272.86-55.85C270.38-55.85 268.82-54.89 268.18-52.93L268.06-52.93C267.66-50.81 267.42-48.65 267.29-46.45C267.09-43.76 266.77-40.32 266.25-36.20C265.13-33.15 263.25-30.55 260.65-28.35C258.77-26.75 256.68-25.79 254.36-25.46L254.08-25.46L253.44-25.50C253.44-25.58 253.20-25.67 252.76-25.75L252.60-25.75L252.72-25.67L252.68-25.67C252.56-25.71 252.44-25.79 252.40-25.83C252.32-25.87 252.16-25.95 251.92-26.15L251.56-26.43C251.56-26.43 251.60-26.35 251.72-26.23C250.72-27.11 250.00-28.39 249.52-30.15C248.60-33.39 248.16-37.28 248.16-41.72C248.16-44.36 248.52-47.41 249.28-50.85C249.44-51.69 249.48-52.25 249.48-52.49C249.48-53.41 249.20-54.17 248.56-54.85C247.28-56.25 245.63-56.94 243.59-56.94C241.59-56.94 240.23-56.29 239.47-55.01C238.23-52.17 237.51-49.69 237.39-47.57C237.23-45.40 237.19-43.80 237.19-42.68C237.19-36.76 237.95-31.79 239.55-27.87C240.67-25.02 242.51-22.70 245.07-20.90C247.72-19.26 250.44-18.42 253.24-18.42C257.00-18.42 260.65-19.58 264.13-21.82C263.77-19.94 263.53-18.82 263.49-18.46C263.13-16.42 262.57-14.37 261.89-12.33C261.21-10.29 260.05-8.57 258.41-7.17C257.65-6.49 256.76-6.05 255.76-5.77L255.52-5.73C255.40-5.73 255.12-5.81 254.68-5.93L254.64-5.93C253.60-6.37 252.80-7.41 252.24-9.05C251.68-10.41 250.48-11.05 248.72-11.05C248.12-11.05 247.52-10.93 246.96-10.69C245.99-10.29 245.51-9.53 245.51-8.37C245.67-6.37 246.43-4.68 247.80-3.36C249.16-2.04 250.72-1.08 252.44-0.52C254.20 0.04 255.80 0.32 257.29 0.32ZM241.23-34.87C240.91-34.87 240.67-35.07 240.55-35.51C240.07-37.52 239.87-39.56 239.87-41.68C239.87-45.12 240.43-48.29 241.55-51.13C241.75-51.53 242.07-51.69 242.47-51.69C242.71-51.69 242.91-51.65 243.07-51.49C243.23-51.37 243.31-51.17 243.31-50.97L243.27-50.65C242.43-48.29 241.99-46.29 241.91-44.72C241.87-43.12 241.83-42.00 241.83-41.28C241.83-39.52 241.95-37.72 242.19-35.96L242.19-35.83C242.19-35.55 242.11-35.31 241.91-35.15C241.71-34.95 241.47-34.87 241.23-34.87ZM242.59-30.47C241.99-30.47 241.71-30.79 241.71-31.39C241.71-31.99 241.99-32.31 242.59-32.31C243.19-32.31 243.51-31.99 243.51-31.39C243.51-30.79 243.19-30.47 242.59-30.47Z"></path></g><g id="" class="logo--name svgSloganText_1 sloganBox" transform="scale(1) translate(117.65500056743622,381.3700004577637)" fill="#ffbd39"><path d="M11.16 0.15C13.89 0.05 15.99-0.88 17.43-2.59C18.63-3.93 19.21-5.40 19.21-6.98C19.21-7.42 19.17-7.89 19.07-8.37C18.77-9.59 18.24-10.62 17.48-11.47C16.55-12.45 15.50-13.38 14.33-14.23C13.48-14.94 12.72-15.72 12.04-16.60L11.79-16.97C11.45-17.46 11.08-18.12 10.72-18.95C10.08-20.39 9.77-21.90 9.77-23.49C9.77-25.98 10.57-28.03 12.16-29.66C13.33-30.83 14.40-31.45 15.36-31.45C15.72-31.45 16.16-31.32 16.63-31.10C17.07-30.83 17.36-30.64 17.48-30.54C18.63-29.44 19.21-28.22 19.21-26.88L19.19-26.29C19.19-25.63 19.48-25.10 20.07-24.73C20.61-24.41 21.17-24.24 21.75-24.24C22.78-24.24 23.44-24.68 23.73-25.54C23.90-26.22 24.00-26.90 24.00-27.54C24.00-28.52 23.80-29.42 23.41-30.30C22.75-31.76 21.75-32.98 20.41-33.94C18.68-35.16 16.72-35.77 14.53-35.77C12.35-35.77 10.33-35.21 8.47-34.08C6.25-32.74 4.69-30.79 3.74-28.22C3.27-26.83 3.03-25.42 3.03-23.95C3.03-23.07 3.13-22.19 3.30-21.29C3.76-18.92 4.71-16.80 6.15-14.97C6.74-14.26 7.37-13.65 8.08-13.11C8.76-12.57 9.47-12.06 10.21-11.60C10.91-11.11 11.62-10.62 12.28-10.11C13.01-9.52 13.43-8.98 13.55-8.50C13.67-8.01 13.72-7.62 13.72-7.32C13.72-6.84 13.65-6.32 13.48-5.76C13.18-4.83 12.72-4.25 12.08-4.00C11.47-3.78 10.91-3.66 10.40-3.66C10.13-3.66 9.67-3.74 9.01-3.86C9.01-3.88 8.96-3.91 8.89-3.96C8.72-4.03 8.59-4.05 8.57-4.08L8.54-4.10L8.52-4.08C8.11-4.35 7.74-4.71 7.47-5.13C6.91-6.13 6.57-7.18 6.47-8.33C6.35-8.98 5.98-9.45 5.42-9.72C4.83-9.99 4.32-10.11 3.83-10.11C2.81-10.11 2.17-9.69 1.93-8.81C1.86-8.42 1.83-8.01 1.83-7.62C1.83-6.81 1.98-6.03 2.27-5.27C2.69-4.13 3.37-3.15 4.27-2.29C6.10-0.66 8.25 0.15 10.67 0.15ZM7.40-24.54C7.01-24.54 6.81-24.76 6.81-25.17C6.81-25.59 7.01-25.81 7.40-25.81C7.81-25.81 8.03-25.59 8.03-25.17C8.03-24.76 7.81-24.54 7.40-24.54ZM7.79-27.25C7.62-27.25 7.47-27.29 7.35-27.42C7.23-27.54 7.15-27.69 7.15-27.81L7.18-27.98C7.57-29.25 8.20-30.47 9.08-31.67C9.94-32.86 11.08-33.59 12.48-33.86L12.55-33.86C12.74-33.86 12.89-33.81 12.99-33.67C13.09-33.54 13.13-33.42 13.13-33.28C13.13-33.06 13.01-32.89 12.74-32.81C11.55-32.52 10.62-31.84 9.91-30.76C9.20-29.69 8.62-28.61 8.20-27.54C8.13-27.34 7.98-27.25 7.79-27.25ZM34.89 0.10C35.99 0.10 37.11-0.15 38.26-0.61C40.14-1.39 41.72-2.56 42.97-4.15C44.97-6.67 45.97-9.99 45.97-14.06C45.97-17.19 45.31-19.78 44.02-21.83C42.97-23.49 41.36-24.46 39.18-24.76C38.04-24.90 37.18-24.98 36.62-24.98C35.23-24.98 33.94-24.61 32.76-23.88C30.86-22.71 29.39-21.12 28.39-19.14C27.34-17.07 26.71-15.26 26.51-13.75C26.34-12.23 26.25-11.21 26.25-10.67C26.25-8.33 26.66-6.35 27.51-4.71C29.17-1.51 31.64 0.10 34.89 0.10ZM29.64-15.60C29.22-15.60 29.03-15.82 29.03-16.24C29.03-16.65 29.22-16.87 29.64-16.87C30.05-16.87 30.25-16.65 30.25-16.24C30.25-15.82 30.05-15.60 29.64-15.60ZM30.62-17.87C30.40-17.87 30.25-17.94 30.15-18.09C30.05-18.21 30.00-18.33 30.00-18.46C30.00-18.55 30.03-18.65 30.08-18.77C31.42-21.83 33.15-23.44 35.25-23.66L35.33-23.66C35.64-23.66 35.82-23.49 35.82-23.12C35.82-22.85 35.67-22.68 35.40-22.61C34.50-22.39 33.76-21.92 33.18-21.24C32.59-20.56 31.91-19.53 31.10-18.16C30.98-17.97 30.81-17.87 30.62-17.87ZM35.30-3.96L35.16-3.96C34.67-3.96 34.38-3.98 34.23-4.05L34.13-4.08C34.06-4.13 33.84-4.39 33.52-4.91C33.06-5.71 32.81-6.74 32.81-7.98C32.81-9.52 32.91-10.86 33.13-12.06C33.30-13.01 33.62-14.11 34.03-15.31C34.47-16.53 35.16-17.72 36.11-18.95L36.13-18.95C36.13-18.95 36.33-19.12 36.65-19.43L36.69-19.46C37.16-19.90 37.45-20.14 37.55-20.19C38.70-20.73 39.31-21.00 39.38-21.00C39.77-20.53 40.01-20.24 40.14-20.07C40.99-18.68 41.43-16.82 41.43-14.45C41.43-11.74 40.75-9.23 39.36-6.96C38.60-5.71 37.48-4.79 36.01-4.15C35.99-4.15 35.96-4.15 35.91-4.13C35.84-4.10 35.79-4.08 35.72-4.05C35.64-4.03 35.50-4.00 35.30-3.96ZM37.35-20.00L37.43-20.04ZM50.98-11.67C50.61-11.67 50.42-11.87 50.42-12.23C50.42-12.62 50.61-12.82 50.98-12.82C51.34-12.82 51.54-12.62 51.54-12.23C51.54-11.87 51.34-11.67 50.98-11.67ZM51.25-13.67L51.20-13.67C50.83-13.67 50.66-13.84 50.63-14.18C50.73-17.43 51.29-20.19 52.34-22.49C52.42-22.66 52.56-22.75 52.76-22.75C52.93-22.75 53.05-22.71 53.13-22.58C53.22-22.46 53.27-22.34 53.27-22.22L53.25-22.00C52.64-20.41 52.20-18.26 51.90-15.53L51.71-14.09C51.66-13.82 51.51-13.70 51.25-13.67ZM56.67-20.92L56.74-21.17ZM52.91 0.81C53.42 0.78 53.91 0.66 54.42 0.44C55.13 0.15 55.49-0.32 55.57-0.95C55.64-1.56 55.66-2.17 55.66-2.78C55.66-3.03 55.64-3.52 55.62-4.22C55.59-5.44 55.57-6.84 55.57-8.42C55.57-9.20 55.57-9.77 55.59-10.08L56.71-10.18C57.18-10.23 57.79-10.25 58.59-10.28C60.96-10.40 62.13-11.01 62.13-12.13C62.08-13.28 61.01-13.87 58.89-13.87L55.86-13.70C56.20-17.58 56.52-20.09 56.79-21.26C56.88-21.48 56.96-21.58 56.98-21.58C57.01-21.61 57.03-21.61 57.03-21.63L57.28-21.78C58.20-21.97 58.72-22.09 58.81-22.14L58.67-22.07C59.33-22.24 61.01-22.34 63.72-22.34C64.16-22.36 64.58-22.51 64.94-22.78C65.31-23.02 65.48-23.39 65.48-23.90C65.43-25.29 63.70-25.98 60.30-25.98C58.64-25.98 57.08-25.83 55.59-25.51L54.74-25.34C53.05-25 51.83-24.07 51.07-22.56C50.46-21.36 50.02-20.07 49.78-18.68C49.22-13.53 48.93-9.23 48.93-5.74C48.93-4.17 49.00-2.76 49.15-1.51C49.19-1.15 49.34-0.83 49.58-0.54C50.24 0.32 51.20 0.78 52.42 0.81ZM73.68 0.29C75.56 0.29 77.15-0.39 78.44-1.76C79.74-3.13 80.40-4.74 80.44-6.59C80.40-7.23 80.13-7.67 79.61-7.89C79.10-8.11 78.64-8.23 78.22-8.23C77.15-8.23 76.49-7.84 76.25-7.03C76.10-6.37 75.88-5.74 75.61-5.15C75.34-4.57 74.90-4.08 74.29-3.66C74.17-3.59 74.07-3.56 74.00-3.54C73.90-3.52 73.85-3.49 73.85-3.47C73.34-3.98 73.07-5.15 73.07-7.01C73.07-7.79 73.12-8.40 73.19-8.86C73.51-14.60 74.34-20.14 75.73-25.49C77.08-25.46 78.32-25.39 79.52-25.29L79.66-25.29C80.13-25.29 80.52-25.44 80.83-25.73C81.15-26.05 81.32-26.42 81.32-26.86C81.32-27.29 81.08-27.69 80.59-28.00C80.10-28.32 79.59-28.52 79.08-28.59C78.42-28.66 77.73-28.71 77.03-28.71C76.90-28.74 76.78-28.74 76.66-28.74C77.08-29.79 77.27-30.71 77.27-31.47C77.27-31.67 77.25-31.88 77.22-32.08C76.95-33.15 76.44-33.79 75.68-34.01C74.93-34.23 74.37-34.35 74.00-34.35C73.32-34.35 72.68-34.13 72.09-33.72C71.58-33.25 71.17-32.69 70.90-32.03C70.61-31.37 70.36-30.69 70.14-30.00L69.85-29.05C69.19-29.10 68.51-29.13 67.87-29.13C67.02-29.13 66.19-29.08 65.36-29.00C64.99-28.96 64.67-28.81 64.43-28.54C64.21-28.27 64.09-27.98 64.09-27.64C64.09-27.20 64.28-26.83 64.70-26.51C65.31-26.03 66.72-25.76 68.90-25.68C68.09-22.66 67.48-19.34 67.07-15.70L66.94-14.75C66.65-12.70 66.50-11.04 66.50-9.79C66.50-6.59 67.43-3.96 69.26-1.86C70.41-0.56 71.88 0.17 73.68 0.29ZM69.82-19.19C69.46-19.19 69.26-19.38 69.26-19.78C69.26-20.17 69.46-20.36 69.82-20.36C70.21-20.36 70.41-20.17 70.41-19.78C70.41-19.38 70.21-19.19 69.82-19.19ZM70.14-21.70C69.80-21.70 69.63-21.88 69.63-22.22C69.95-25.54 70.83-28.69 72.27-31.69C72.36-31.86 72.49-31.93 72.66-31.93C72.83-31.93 72.95-31.88 73.05-31.79C73.14-31.67 73.19-31.57 73.19-31.47L73.17-31.32C72.27-29.08 71.56-26.66 71.04-24.05C70.92-23.39 70.80-22.73 70.65-22.07C70.58-21.83 70.41-21.70 70.14-21.70ZM91.89-4.42C91.87-4.49 91.85-4.52 91.82-4.52L91.75-4.52C91.82-4.49 91.85-4.44 91.85-4.44C91.87-4.42 91.87-4.42 91.89-4.42ZM92.02-0.02C94.58-0.02 96.83-1.15 98.78-3.39C100.05-1.81 101.27-0.98 102.44-0.85C103.59-0.73 104.47-0.68 105.03-0.68C106.69-0.68 108.23-1.10 109.64-1.93C112.30-3.61 114.23-6.32 115.45-10.03C116.99-14.60 117.87-20.02 118.04-26.29L118.07-27.71C118.07-29.79 117.94-31.81 117.75-33.81C117.50-35.11 116.60-35.77 115.06-35.77C113.23-35.77 112.33-35.06 112.33-33.62L112.45-31.88C112.55-30.62 112.57-29.32 112.57-28.03C112.57-26.42 112.52-24.80 112.38-23.17C112.06-18.07 111.21-13.60 109.81-9.81C109.25-7.84 108.30-6.30 106.98-5.22L107.01-5.25C106.67-5.03 106.30-4.83 105.93-4.66C105.81-4.59 105.71-4.57 105.66-4.57C105.59-4.57 105.52-4.57 105.42-4.54L105.00-4.52C104.93-4.52 104.86-4.52 104.81-4.52C104.74-4.54 104.69-4.54 104.61-4.54C104.54-4.54 104.44-4.57 104.27-4.59C104.10-4.61 104.00-4.64 103.93-4.71C103.76-4.74 103.64-4.81 103.56-4.88C103.54-4.88 103.47-4.98 103.34-5.18C103.05-5.76 102.91-6.47 102.91-7.30C102.91-8.18 103.08-9.45 103.42-11.16C103.88-13.92 104.17-16.50 104.30-18.95C104.25-19.80 103.88-20.39 103.22-20.75C102.73-21.02 102.25-21.14 101.71-21.14C100.59-21.14 99.85-20.65 99.51-19.65C98.95-17.38 98.51-15.11 98.19-12.84L97.90-10.96C97.39-9.35 96.61-7.86 95.56-6.52C94.43-5.15 93.41-4.47 92.53-4.42L91.89-4.42C91.89-4.42 91.87-4.44 91.85-4.44C91.80-4.44 91.77-4.47 91.72-4.52L91.75-4.52L91.16-5.05C90.97-5.37 90.72-5.76 90.50-6.25C90.48-6.27 90.48-6.30 90.48-6.32C90.48-6.35 90.45-6.40 90.38-6.47C90.06-7.45 89.84-8.84 89.72-10.64L89.72-10.96C89.72-12.13 89.77-13.31 89.92-14.45C90.48-18.75 91.26-22.80 92.29-26.59C92.87-28.64 93.16-30.25 93.16-31.47C93.16-31.69 93.12-32.03 93.07-32.54C92.94-33.11 92.65-33.54 92.14-33.89C91.50-34.33 90.82-34.52 90.09-34.52C89.06-34.52 88.23-34.13 87.60-33.33C87.01-32.45 86.60-31.49 86.33-30.44C86.33-30.42 86.33-30.40 86.30-30.37C85.84-28.83 85.45-27.27 85.13-25.71C84.18-21.90 83.50-18.02 83.11-14.09C83.03-13.38 83.01-12.67 83.01-11.99C83.01-10.82 83.08-9.72 83.25-8.74C83.47-6.93 84.08-5.27 85.08-3.76C86.47-1.73 88.38-0.54 90.80-0.12C91.21-0.05 91.60-0.02 92.02-0.02ZM86.47-23.80L86.38-23.80C86.08-23.80 85.91-23.95 85.89-24.24C85.99-25.81 86.50-27.64 87.40-29.76L88.16-31.79C88.26-32.01 88.43-32.13 88.70-32.13C88.79-32.13 88.89-32.10 88.99-32.03C89.09-31.96 89.14-31.88 89.14-31.79C89.14-31.69 88.89-30.88 88.38-29.35C87.77-27.69 87.28-25.98 86.94-24.22C86.87-23.95 86.72-23.83 86.47-23.80ZM86.60-21.46L86.52-21.46C86.16-21.46 85.99-21.68 85.99-22.12C85.99-22.46 86.18-22.63 86.60-22.63C86.96-22.63 87.13-22.44 87.13-22.05C87.13-21.68 86.96-21.48 86.60-21.46ZM91.80-4.44L91.70-4.47L91.72-4.52ZM91.11-5.10L91.04-5.20ZM129.13 0.39C130.76 0.39 132.32 0.02 133.76-0.71C134.18-0.56 134.57-0.49 134.94-0.49C135.57-0.49 136.16-0.71 136.69-1.15C137.40-1.73 137.94-2.54 138.26-3.54C138.57-4.54 138.82-5.64 139.01-6.79C139.53-9.45 139.77-12.21 139.77-15.06L139.77-15.01C139.75-15.01 139.72-15.38 139.67-16.14C139.55-17.87 139.11-19.53 138.35-21.09C137.45-22.95 136.25-24.22 134.72-24.93C133.18-25.61 131.69-25.95 130.25-25.95C128.83-25.95 127.29-25.66 125.61-25.10C123.02-24.19 121.53-22.73 121.12-20.75L121.09-20.53C121.09-19.97 121.34-19.53 121.83-19.19C122.29-18.85 122.85-18.68 123.46-18.68C124.17-18.68 124.68-18.95 125.05-19.51C125.63-20.41 126.32-21.04 127.08-21.46C127.83-21.85 128.54-22.05 129.25-22.05C130.49-22.05 131.35-21.66 131.86-20.87C132.35-20.07 132.69-19.17 132.86-18.12C133.11-16.72 133.23-15.87 133.23-15.58L133.18-14.16C131.64-15.38 129.88-15.99 127.88-15.99C125.83-15.99 124.19-15.33 122.95-14.04C121.83-12.84 121.09-11.35 120.75-9.57C120.61-8.86 120.53-8.15 120.53-7.50C120.53-4.44 121.88-2.17 124.56-0.73C125.95 0.02 127.47 0.39 129.13 0.39ZM128.88-3.66C128.69-3.66 128.49-3.69 128.32-3.74C128.15-3.78 128.00-3.86 127.91-3.93C127.78-4.00 127.71-4.08 127.64-4.10C127.64-4.13 127.61-4.17 127.56-4.22C127.54-4.27 127.49-4.30 127.47-4.30C127.20-4.88 127.05-5.54 127.05-6.30C127.05-6.67 127.08-7.03 127.15-7.45C127.47-9.42 128.05-10.86 128.93-11.74L129.10-11.87L129.05-11.82C129.13-11.82 129.20-11.84 129.30-11.89C129.93-11.87 130.52-11.45 131.08-10.67C131.76-9.72 132.18-8.64 132.30-7.45C132.40-6.42 132.45-5.49 132.45-4.61C130.76-3.98 129.57-3.66 128.88-3.66ZM137.28-14.26C136.96-14.26 136.82-14.40 136.82-14.72L136.82-15.77C136.82-17.07 136.43-18.63 135.64-20.43C135.60-20.51 135.57-20.61 135.57-20.68C135.57-20.80 135.60-20.90 135.67-20.97C135.79-21.14 135.96-21.22 136.13-21.22C136.28-21.22 136.40-21.12 136.47-20.95C137.48-18.95 137.96-16.85 137.96-14.65C137.96-14.55 137.84-14.45 137.62-14.33C137.50-14.28 137.38-14.26 137.28-14.26ZM137.55-12.35C137.23-12.35 137.08-12.52 137.08-12.87C137.08-13.18 137.23-13.35 137.55-13.35C137.87-13.35 138.04-13.18 138.04-12.87C138.04-12.52 137.87-12.35 137.55-12.35ZM137.65-10.84C137.30-10.84 137.16-11.01 137.16-11.38C137.16-11.74 137.30-11.91 137.65-11.91C137.99-11.91 138.18-11.74 138.18-11.38C138.18-11.01 137.99-10.84 137.65-10.84ZM146.66 0.15C147.61 0.15 148.39-0.17 149.00-0.76C149.41-1.17 149.63-1.64 149.63-2.15C149.63-2.42 149.56-2.73 149.41-3.05C149.29-3.69 149.24-4.32 149.24-4.98C150.61-9.62 152.56-13.84 155.05-17.65C155.05-17.68 155.05-17.68 155.08-17.68C155.57-18.43 155.98-18.95 156.35-19.19C156.54-18.68 156.64-18.16 156.64-17.63C156.64-17.41 156.62-17.16 156.59-16.94L156.59-16.75C156.59-15.99 156.84-15.36 157.32-14.82C158.06-14.04 158.98-13.65 160.11-13.65C161.91-13.65 162.94-14.28 163.21-15.53C163.28-16.02 163.31-16.53 163.31-17.02C163.31-18.38 163.04-19.56 162.50-20.53C161.50-22.17 160.08-23.19 158.20-23.58C157.81-23.66 157.45-23.68 157.08-23.68C156.03-23.68 155.05-23.39 154.17-22.83C152.98-22.07 152.00-21.09 151.20-19.87L150.56-18.90C150.93-20.21 151.10-21.19 151.10-21.80C151.10-22.53 150.85-23.17 150.37-23.68C149.66-24.44 148.71-24.83 147.51-24.83C146.12-24.83 145.17-24.19 144.65-22.97C144.07-21.31 143.60-19.46 143.29-17.36C142.75-14.53 142.48-11.50 142.48-8.30C142.48-7.54 142.50-6.81 142.53-6.05L142.55-5.32C142.55-3.39 142.87-2.03 143.53-1.20C144.34-0.32 145.39 0.15 146.66 0.15ZM145.12-13.11C144.73-13.11 144.53-13.31 144.53-13.72C144.53-14.14 144.73-14.33 145.12-14.33C145.51-14.33 145.73-14.14 145.73-13.72C145.73-13.31 145.51-13.11 145.12-13.11ZM145.29-14.87C144.82-14.87 144.58-15.60 144.58-17.04C144.58-17.75 144.68-18.48 144.87-19.21C145.24-20.61 145.78-21.85 146.46-22.90C146.58-23.07 146.73-23.17 146.90-23.17C147.09-23.17 147.24-23.10 147.34-22.97C147.44-22.85 147.49-22.75 147.49-22.66C147.49-22.56 147.44-22.46 147.39-22.36C146.80-21.26 146.41-20.14 146.22-18.99C146.02-17.85 145.90-16.65 145.87-15.41C145.85-15.06 145.65-14.87 145.29-14.87ZM155.96-19.75L155.88-19.85ZM175.76 0.22C178.69 0.10 181.08-1.05 182.93-3.22C183.89-4.32 184.50-5.57 184.77-6.96L184.77-7.30C184.74-7.84 184.50-8.25 184.01-8.57C183.52-8.86 182.96-9.01 182.32-9.01C181.54-9.01 180.93-8.72 180.49-8.13L179.83-6.98C178.71-4.74 177.32-3.59 175.71-3.49L175.59-3.49C175.05-3.49 174.54-3.61 174.07-3.83C173.07-4.32 172.51-5.81 172.39-8.30L172.39-8.76C172.39-9.23 172.41-9.72 172.44-10.18L173.34-10.21C176.20-10.33 178.83-11.06 181.25-12.43C183.18-13.45 184.57-14.97 185.40-16.97C185.64-17.70 185.77-18.41 185.77-19.09C185.77-19.92 185.55-20.70 185.11-21.46C184.35-22.80 183.18-23.83 181.64-24.49C180.42-24.98 179.15-25.22 177.86-25.22C176.07-25.22 174.32-24.78 172.61-23.90C170.12-22.58 168.29-20.39 167.14-17.31C166.19-14.72 165.70-12.06 165.70-9.35L165.72-8.35C165.80-6.74 166.26-5.27 167.14-3.98C167.97-2.76 169.04-1.78 170.39-1.05C172.02-0.20 173.66 0.22 175.32 0.22ZM173.05-13.75C173.46-15.63 174.29-17.26 175.54-18.65C176.78-19.95 178.08-20.61 179.37-20.61L179.35-20.61C179.35-20.56 179.52-20.53 179.88-20.53L179.76-20.58C180.40-20.39 180.71-19.90 180.71-19.12C180.71-18.82 180.66-18.55 180.59-18.33C180.08-17.02 179.27-16.02 178.17-15.36C176.88-14.55 175.44-14.06 173.88-13.87L173.17-13.79ZM169.60-16.33L169.56-16.33C169.21-16.33 169.04-16.53 169.04-16.94C169.04-17.31 169.24-17.48 169.60-17.48C169.97-17.48 170.17-17.29 170.17-16.87C170.17-16.53 169.97-16.36 169.60-16.33ZM170.24-17.80C170.04-17.80 169.90-17.85 169.80-17.97C169.70-18.09 169.65-18.19 169.65-18.29C169.65-18.36 169.68-18.46 169.73-18.55C170.80-20.87 172.53-22.44 174.93-23.27L175.05-23.29C175.42-23.29 175.59-23.10 175.59-22.73C175.59-22.49 175.46-22.34 175.24-22.27C173.41-21.56 171.88-20.14 170.63-18.07C170.51-17.90 170.39-17.80 170.24-17.80ZM206.30 0.22C206.54 0.22 206.81 0.20 207.06 0.12C207.42 0.10 207.79 0.02 208.15-0.10C211.43-1.29 214.45-3.10 217.21-5.47C219.97-7.84 222.14-10.52 223.68-13.55C225.22-16.58 225.98-19.70 225.98-22.92C225.98-26.15 225.05-28.91 223.19-31.20C222.19-32.37 221.14-33.18 220.04-33.62C218.92-34.06 217.97-34.28 217.16-34.28C215.09-34.28 213.33-33.33 211.89-31.47C210.99-30.32 210.23-29.15 209.62-27.95L209.84-29.42C209.89-29.74 209.94-30.03 210.01-30.32C210.18-31.13 210.28-31.81 210.28-32.45C210.28-32.91 210.18-33.40 210.01-33.86C209.59-34.72 209.06-35.23 208.35-35.38C207.64-35.52 207.13-35.60 206.86-35.60C206.13-35.60 205.52-35.38 204.98-34.91C204.52-34.40 204.20-33.86 204.03-33.25C203.86-32.71 203.69-31.88 203.49-30.76C202.66-26.22 202.22-20.85 202.22-14.60C202.22-11.94 202.27-10.01 202.34-8.81C202.37-7.54 202.44-6.25 202.59-4.93C202.73-3.59 203.08-2.37 203.59-1.25C204.13-0.27 205.03 0.22 206.30 0.22ZM205.91-14.21C205.52-14.21 205.35-14.40 205.35-14.79C205.35-15.21 205.52-15.41 205.91-15.41C206.30-15.41 206.49-15.21 206.49-14.79C206.49-14.40 206.30-14.21 205.91-14.21ZM205.81-16.04C205.44-16.04 205.27-16.24 205.27-16.60C205.27-16.99 205.44-17.19 205.81-17.19C206.18-17.19 206.37-16.99 206.37-16.60C206.37-16.24 206.18-16.04 205.81-16.04ZM205.69-19.24C205.37-19.24 205.20-19.38 205.15-19.65C205.08-20.17 205.05-20.68 205.05-21.22C205.05-22.31 205.18-23.61 205.42-25.07C205.64-26.98 206.05-29.15 206.69-31.62C206.76-31.84 206.84-31.93 206.96-31.96C207.06-31.96 207.13-31.96 207.15-31.96C207.52-31.96 207.69-31.79 207.69-31.40L207.69-31.32C206.98-27.76 206.59-24.90 206.52-22.71C206.45-20.53 206.27-19.38 206.01-19.31C205.88-19.26 205.79-19.24 205.69-19.24ZM208.54-5.47L208.54-6.25C208.72-9.42 209.23-12.67 210.08-16.02C210.60-18.24 211.25-20.41 212.04-22.58C212.82-24.76 213.87-26.76 215.16-28.64C215.21-28.69 215.26-28.76 215.31-28.83C216.06-29.91 216.63-30.52 216.97-30.66C217.04-30.66 217.09-30.64 217.11-30.64C217.14-30.64 217.16-30.64 217.19-30.62C218.12-29.91 218.73-28.71 219.09-27.08C219.29-26.03 219.41-25 219.41-23.95C219.41-20.21 218.19-16.60 215.72-13.13C213.82-10.16 211.43-7.59 208.54-5.47ZM238.84 0.22C241.77 0.10 244.17-1.05 246.02-3.22C246.97-4.32 247.58-5.57 247.85-6.96L247.85-7.30C247.83-7.84 247.58-8.25 247.09-8.57C246.61-8.86 246.04-9.01 245.41-9.01C244.63-9.01 244.02-8.72 243.58-8.13L242.92-6.98C241.80-4.74 240.41-3.59 238.79-3.49L238.67-3.49C238.13-3.49 237.62-3.61 237.16-3.83C236.16-4.32 235.60-5.81 235.47-8.30L235.47-8.76C235.47-9.23 235.50-9.72 235.52-10.18L236.43-10.21C239.28-10.33 241.92-11.06 244.34-12.43C246.26-13.45 247.66-14.97 248.49-16.97C248.73-17.70 248.85-18.41 248.85-19.09C248.85-19.92 248.63-20.70 248.19-21.46C247.44-22.80 246.26-23.83 244.73-24.49C243.51-24.98 242.24-25.22 240.94-25.22C239.16-25.22 237.40-24.78 235.69-23.90C233.20-22.58 231.37-20.39 230.22-17.31C229.27-14.72 228.78-12.06 228.78-9.35L228.81-8.35C228.88-6.74 229.35-5.27 230.22-3.98C231.05-2.76 232.13-1.78 233.47-1.05C235.11-0.20 236.74 0.22 238.40 0.22ZM236.13-13.75C236.55-15.63 237.38-17.26 238.62-18.65C239.87-19.95 241.16-20.61 242.46-20.61L242.43-20.61C242.43-20.56 242.60-20.53 242.97-20.53L242.85-20.58C243.48-20.39 243.80-19.90 243.80-19.12C243.80-18.82 243.75-18.55 243.68-18.33C243.16-17.02 242.36-16.02 241.26-15.36C239.97-14.55 238.53-14.06 236.96-13.87L236.25-13.79ZM232.69-16.33L232.64-16.33C232.30-16.33 232.13-16.53 232.13-16.94C232.13-17.31 232.32-17.48 232.69-17.48C233.06-17.48 233.25-17.29 233.25-16.87C233.25-16.53 233.06-16.36 232.69-16.33ZM233.33-17.80C233.13-17.80 232.98-17.85 232.89-17.97C232.79-18.09 232.74-18.19 232.74-18.29C232.74-18.36 232.76-18.46 232.81-18.55C233.89-20.87 235.62-22.44 238.01-23.27L238.13-23.29C238.50-23.29 238.67-23.10 238.67-22.73C238.67-22.49 238.55-22.34 238.33-22.27C236.50-21.56 234.96-20.14 233.72-18.07C233.59-17.90 233.47-17.80 233.33-17.80ZM259.20 0.20C260.45 0.20 261.52-0.34 262.43-1.42C262.87-1.93 263.28-2.44 263.65-2.98L264.04-3.54C268.16-9.33 270.73-15.41 271.73-21.80L271.73-22.00C271.73-22.66 271.44-23.19 270.80-23.56C270.26-23.88 269.70-24.05 269.12-24.05C268.09-24.05 267.48-23.61 267.29-22.75C266.46-17.29 264.55-12.18 261.52-7.45L260.52-6.03C260.50-6.05 260.50-6.08 260.50-6.10C260.50-6.13 260.50-6.18 260.47-6.23C259.74-10.99 259.38-14.67 259.38-17.29L259.40-18.55C259.42-18.92 259.45-19.29 259.45-19.65C259.45-20.43 259.38-21.22 259.25-21.97C259.03-22.90 258.52-23.56 257.76-23.93C257.01-24.29 256.32-24.49 255.66-24.49C254.27-24.49 253.34-23.88 252.91-22.66C252.71-21.90 252.61-20.97 252.61-19.90C252.61-19.31 252.64-18.75 252.66-18.19L252.69-17.09C252.78-13.18 253.17-9.52 253.86-6.05C254.27-4.03 254.96-2.47 255.91-1.32C256.81-0.32 257.91 0.20 259.20 0.20ZM254.49-15.31C254.20-15.31 254.03-15.45 253.96-15.75C253.81-16.60 253.74-17.46 253.74-18.31C253.74-19.60 253.91-20.87 254.22-22.14C254.32-22.41 254.44-22.53 254.57-22.56C254.69-22.58 254.76-22.58 254.81-22.58C254.98-22.58 255.15-22.53 255.30-22.41C255.44-22.29 255.52-22.14 255.52-21.95L255.49-21.78C255.27-20.70 255.18-19.63 255.18-18.55L255.18-17.29L255.15-15.92C255.10-15.50 254.86-15.31 254.49-15.31ZM255.15-13.35L254.91-13.38C254.59-13.48 254.44-13.70 254.44-14.04C254.44-14.18 254.49-14.33 254.64-14.45C254.76-14.58 254.91-14.65 255.08-14.65C255.40-14.65 255.59-14.48 255.69-14.16L255.71-14.11L255.74-13.89C255.74-13.75 255.69-13.62 255.57-13.50C255.47-13.40 255.32-13.35 255.15-13.35ZM284.11 0.22C287.04 0.10 289.43-1.05 291.28-3.22C292.24-4.32 292.85-5.57 293.12-6.96L293.12-7.30C293.09-7.84 292.85-8.25 292.36-8.57C291.87-8.86 291.31-9.01 290.67-9.01C289.89-9.01 289.28-8.72 288.84-8.13L288.18-6.98C287.06-4.74 285.67-3.59 284.06-3.49L283.94-3.49C283.40-3.49 282.89-3.61 282.42-3.83C281.42-4.32 280.86-5.81 280.74-8.30L280.74-8.76C280.74-9.23 280.76-9.72 280.79-10.18L281.69-10.21C284.55-10.33 287.18-11.06 289.60-12.43C291.53-13.45 292.92-14.97 293.75-16.97C293.99-17.70 294.12-18.41 294.12-19.09C294.12-19.92 293.90-20.70 293.46-21.46C292.70-22.80 291.53-23.83 289.99-24.49C288.77-24.98 287.50-25.22 286.21-25.22C284.42-25.22 282.67-24.78 280.96-23.90C278.47-22.58 276.64-20.39 275.49-17.31C274.54-14.72 274.05-12.06 274.05-9.35L274.07-8.35C274.15-6.74 274.61-5.27 275.49-3.98C276.32-2.76 277.39-1.78 278.74-1.05C280.37-0.20 282.01 0.22 283.67 0.22ZM281.40-13.75C281.81-15.63 282.64-17.26 283.89-18.65C285.13-19.95 286.43-20.61 287.72-20.61L287.70-20.61C287.70-20.56 287.87-20.53 288.23-20.53L288.11-20.58C288.75-20.39 289.06-19.90 289.06-19.12C289.06-18.82 289.01-18.55 288.94-18.33C288.43-17.02 287.62-16.02 286.52-15.36C285.23-14.55 283.79-14.06 282.23-13.87L281.52-13.79ZM277.95-16.33L277.91-16.33C277.56-16.33 277.39-16.53 277.39-16.94C277.39-17.31 277.59-17.48 277.95-17.48C278.32-17.48 278.52-17.29 278.52-16.87C278.52-16.53 278.32-16.36 277.95-16.33ZM278.59-17.80C278.39-17.80 278.25-17.85 278.15-17.97C278.05-18.09 278.00-18.19 278.00-18.29C278.00-18.36 278.03-18.46 278.08-18.55C279.15-20.87 280.88-22.44 283.28-23.27L283.40-23.29C283.76-23.29 283.94-23.10 283.94-22.73C283.94-22.49 283.81-22.34 283.59-22.27C281.76-21.56 280.22-20.14 278.98-18.07C278.86-17.90 278.74-17.80 278.59-17.80ZM305.69-0.05C307.86-0.12 309.42-0.66 310.40-1.64C310.67-1.98 310.82-2.32 310.82-2.69C310.79-3.00 310.67-3.34 310.42-3.66C309.81-4.27 309.08-4.57 308.20-4.57C307.96-4.57 307.37-4.49 306.40-4.32L305.98-4.27C305.88-4.27 305.83-4.30 305.83-4.37L305.83-4.30L305.69-4.81C305.00-6.96 304.66-9.81 304.66-13.40C304.66-16.09 304.86-19.29 305.25-23.00C305.49-25.63 305.74-27.54 305.98-28.71C306.18-29.54 306.27-30.40 306.27-31.20C306.27-31.64 306.27-32.01 306.23-32.28C306.15-32.98 305.79-33.54 305.13-33.96C304.44-34.38 303.74-34.57 303.03-34.57C301.10-34.57 299.90-33.37 299.41-30.96C299.24-30.10 299.15-29.30 299.07-28.49C299.02-28.08 298.97-27.69 298.90-27.32C298.27-22.83 297.95-18.38 297.95-13.94C297.95-12.87 297.95-11.77 298.00-10.69C298.05-9.20 298.22-7.69 298.54-6.13C298.88-4.30 299.71-2.73 301.05-1.49C302.32-0.54 303.76-0.05 305.37-0.05ZM300.46-20.73L300.39-20.73C300.02-20.73 299.83-20.95 299.83-21.44C299.83-21.75 300.05-21.92 300.49-21.92C300.81-21.92 300.98-21.70 300.98-21.26C300.98-20.95 300.81-20.78 300.46-20.73ZM300.73-23.29L300.59-23.29C300.32-23.29 300.15-23.44 300.10-23.75C300.10-26.54 300.49-29.25 301.25-31.91C301.29-32.15 301.49-32.28 301.86-32.28C302.05-32.28 302.17-32.15 302.20-31.93L302.17-31.76C301.76-29.64 301.49-27.51 301.37-25.37L301.22-23.73C301.17-23.46 301.00-23.32 300.73-23.29ZM305.79-4.32L305.66-4.35ZM320.07 0.10C321.17 0.10 322.29-0.15 323.44-0.61C325.32-1.39 326.90-2.56 328.15-4.15C330.15-6.67 331.15-9.99 331.15-14.06C331.15-17.19 330.49-19.78 329.20-21.83C328.15-23.49 326.54-24.46 324.37-24.76C323.22-24.90 322.36-24.98 321.80-24.98C320.41-24.98 319.12-24.61 317.94-23.88C316.04-22.71 314.58-21.12 313.57-19.14C312.52-17.07 311.89-15.26 311.69-13.75C311.52-12.23 311.43-11.21 311.43-10.67C311.43-8.33 311.84-6.35 312.70-4.71C314.36-1.51 316.82 0.10 320.07 0.10ZM314.82-15.60C314.40-15.60 314.21-15.82 314.21-16.24C314.21-16.65 314.40-16.87 314.82-16.87C315.23-16.87 315.43-16.65 315.43-16.24C315.43-15.82 315.23-15.60 314.82-15.60ZM315.80-17.87C315.58-17.87 315.43-17.94 315.33-18.09C315.23-18.21 315.19-18.33 315.19-18.46C315.19-18.55 315.21-18.65 315.26-18.77C316.60-21.83 318.33-23.44 320.43-23.66L320.51-23.66C320.83-23.66 321.00-23.49 321.00-23.12C321.00-22.85 320.85-22.68 320.58-22.61C319.68-22.39 318.95-21.92 318.36-21.24C317.77-20.56 317.09-19.53 316.28-18.16C316.16-17.97 315.99-17.87 315.80-17.87ZM320.48-3.96L320.34-3.96C319.85-3.96 319.56-3.98 319.41-4.05L319.31-4.08C319.24-4.13 319.02-4.39 318.70-4.91C318.24-5.71 317.99-6.74 317.99-7.98C317.99-9.52 318.09-10.86 318.31-12.06C318.48-13.01 318.80-14.11 319.21-15.31C319.65-16.53 320.34-17.72 321.29-18.95L321.31-18.95C321.31-18.95 321.51-19.12 321.83-19.43L321.88-19.46C322.34-19.90 322.63-20.14 322.73-20.19C323.88-20.73 324.49-21.00 324.56-21.00C324.95-20.53 325.20-20.24 325.32-20.07C326.17-18.68 326.61-16.82 326.61-14.45C326.61-11.74 325.93-9.23 324.54-6.96C323.78-5.71 322.66-4.79 321.19-4.15C321.17-4.15 321.14-4.15 321.09-4.13C321.02-4.10 320.97-4.08 320.90-4.05C320.83-4.03 320.68-4.00 320.48-3.96ZM322.53-20.00L322.61-20.04ZM337.94 4.57C339.72 4.49 340.65 3.56 340.72 1.83L340.70-1.10L340.72-4.03C341.50-3.93 342.29-3.88 343.07-3.88C345.61-3.88 347.83-4.47 349.76-5.69C351.49-6.76 352.86-8.18 353.88-9.96C354.91-11.74 355.42-13.65 355.42-15.72C355.42-18.58 354.66-20.87 353.15-22.63C352.00-23.97 350.42-24.66 348.41-24.66C347.41-24.66 346.46-24.41 345.51-23.90C344.14-23.17 342.97-22.19 341.97-20.95L341.97-21.48C341.89-22.71 341.38-23.58 340.38-24.10C339.70-24.44 339.04-24.61 338.33-24.61C337.23-24.61 336.40-24.17 335.84-23.27C335.38-22.31 335.13-21.24 335.06-20.02C334.38-13.99 334.03-7.89 334.03-1.78C334.03-0.68 334.03 0.39 334.06 1.46C334.16 2.73 334.62 3.56 335.47 3.98C336.33 4.37 337.08 4.57 337.72 4.57ZM336.06-11.87C335.89-11.87 335.77-11.91 335.64-12.04C335.52-12.13 335.47-12.28 335.47-12.48C335.47-12.65 335.52-12.79 335.67-12.94C335.79-13.09 335.94-13.16 336.11-13.16C336.52-13.16 336.74-12.96 336.77-12.57C336.77-12.40 336.72-12.26 336.62-12.13C336.60-12.13 336.60-12.13 336.60-12.11C336.43-11.96 336.25-11.89 336.06-11.87ZM336.08-14.23C335.96-14.23 335.84-14.28 335.72-14.36C335.57-14.43 335.50-14.58 335.47-14.84C335.45-15.11 335.45-15.38 335.45-15.65C335.45-17.94 335.94-20.14 336.94-22.22C337.06-22.41 337.23-22.51 337.48-22.51C337.65-22.51 337.77-22.46 337.89-22.36C337.99-22.27 338.04-22.17 338.04-22.05L338.01-21.85C337.38-20.04 336.96-18.21 336.79-16.33C336.74-15.77 336.67-15.21 336.57-14.65C336.50-14.38 336.35-14.26 336.08-14.23ZM341.28-8.03C342.36-12.55 343.73-16.06 345.39-18.58C346.29-19.90 347.24-20.65 348.22-20.85C348.24-20.85 348.27-20.85 348.27-20.83L348.27-20.85C348.29-20.80 348.29-20.78 348.32-20.78C348.32-20.75 348.32-20.73 348.32-20.68L348.29-20.75C348.32-20.65 348.41-20.48 348.56-20.21C348.78-19.85 348.93-19.29 349.05-18.55C349.17-17.82 349.22-17.19 349.22-16.65C349.22-15.50 349.00-14.33 348.54-13.18C347.78-11.30 346.53-9.94 344.80-9.08C344.24-8.81 343.63-8.59 342.99-8.37C342.68-8.23 342.38-8.13 342.16-8.11ZM348.58-20.85L348.44-20.87L348.51-20.87C348.56-20.87 348.58-20.87 348.58-20.85ZM368.63 0.22C371.56 0.10 373.95-1.05 375.81-3.22C376.76-4.32 377.37-5.57 377.64-6.96L377.64-7.30C377.61-7.84 377.37-8.25 376.88-8.57C376.39-8.86 375.83-9.01 375.20-9.01C374.41-9.01 373.80-8.72 373.36-8.13L372.71-6.98C371.58-4.74 370.19-3.59 368.58-3.49L368.46-3.49C367.92-3.49 367.41-3.61 366.94-3.83C365.94-4.32 365.38-5.81 365.26-8.30L365.26-8.76C365.26-9.23 365.28-9.72 365.31-10.18L366.21-10.21C369.07-10.33 371.70-11.06 374.12-12.43C376.05-13.45 377.44-14.97 378.27-16.97C378.52-17.70 378.64-18.41 378.64-19.09C378.64-19.92 378.42-20.70 377.98-21.46C377.22-22.80 376.05-23.83 374.51-24.49C373.29-24.98 372.02-25.22 370.73-25.22C368.95-25.22 367.19-24.78 365.48-23.90C362.99-22.58 361.16-20.39 360.01-17.31C359.06-14.72 358.57-12.06 358.57-9.35L358.59-8.35C358.67-6.74 359.13-5.27 360.01-3.98C360.84-2.76 361.91-1.78 363.26-1.05C364.89-0.20 366.53 0.22 368.19 0.22ZM365.92-13.75C366.33-15.63 367.16-17.26 368.41-18.65C369.65-19.95 370.95-20.61 372.24-20.61L372.22-20.61C372.22-20.56 372.39-20.53 372.75-20.53L372.63-20.58C373.27-20.39 373.58-19.90 373.58-19.12C373.58-18.82 373.54-18.55 373.46-18.33C372.95-17.02 372.14-16.02 371.04-15.36C369.75-14.55 368.31-14.06 366.75-13.87L366.04-13.79ZM362.48-16.33L362.43-16.33C362.08-16.33 361.91-16.53 361.91-16.94C361.91-17.31 362.11-17.48 362.48-17.48C362.84-17.48 363.04-17.29 363.04-16.87C363.04-16.53 362.84-16.36 362.48-16.33ZM363.11-17.80C362.92-17.80 362.77-17.85 362.67-17.97C362.57-18.09 362.52-18.19 362.52-18.29C362.52-18.36 362.55-18.46 362.60-18.55C363.67-20.87 365.41-22.44 367.80-23.27L367.92-23.29C368.29-23.29 368.46-23.10 368.46-22.73C368.46-22.49 368.33-22.34 368.12-22.27C366.28-21.56 364.75-20.14 363.50-18.07C363.38-17.90 363.26-17.80 363.11-17.80ZM386.21 0.15C387.16 0.15 387.94-0.17 388.55-0.76C388.96-1.17 389.18-1.64 389.18-2.15C389.18-2.42 389.11-2.73 388.96-3.05C388.84-3.69 388.79-4.32 388.79-4.98C390.16-9.62 392.11-13.84 394.60-17.65C394.60-17.68 394.60-17.68 394.63-17.68C395.12-18.43 395.53-18.95 395.90-19.19C396.09-18.68 396.19-18.16 396.19-17.63C396.19-17.41 396.17-17.16 396.14-16.94L396.14-16.75C396.14-15.99 396.39-15.36 396.88-14.82C397.61-14.04 398.54-13.65 399.66-13.65C401.46-13.65 402.49-14.28 402.76-15.53C402.83-16.02 402.86-16.53 402.86-17.02C402.86-18.38 402.59-19.56 402.05-20.53C401.05-22.17 399.63-23.19 397.75-23.58C397.36-23.66 397.00-23.68 396.63-23.68C395.58-23.68 394.60-23.39 393.73-22.83C392.53-22.07 391.55-21.09 390.75-19.87L390.11-18.90C390.48-20.21 390.65-21.19 390.65-21.80C390.65-22.53 390.41-23.17 389.92-23.68C389.21-24.44 388.26-24.83 387.06-24.83C385.67-24.83 384.72-24.19 384.20-22.97C383.62-21.31 383.15-19.46 382.84-17.36C382.30-14.53 382.03-11.50 382.03-8.30C382.03-7.54 382.06-6.81 382.08-6.05L382.10-5.32C382.10-3.39 382.42-2.03 383.08-1.20C383.89-0.32 384.94 0.15 386.21 0.15ZM384.67-13.11C384.28-13.11 384.08-13.31 384.08-13.72C384.08-14.14 384.28-14.33 384.67-14.33C385.06-14.33 385.28-14.14 385.28-13.72C385.28-13.31 385.06-13.11 384.67-13.11ZM384.84-14.87C384.38-14.87 384.13-15.60 384.13-17.04C384.13-17.75 384.23-18.48 384.42-19.21C384.79-20.61 385.33-21.85 386.01-22.90C386.13-23.07 386.28-23.17 386.45-23.17C386.65-23.17 386.79-23.10 386.89-22.97C386.99-22.85 387.04-22.75 387.04-22.66C387.04-22.56 386.99-22.46 386.94-22.36C386.35-21.26 385.96-20.14 385.77-18.99C385.57-17.85 385.45-16.65 385.42-15.41C385.40-15.06 385.21-14.87 384.84-14.87ZM395.51-19.75L395.43-19.85Z"></path></g></g></g></g></svg>