<svg xmlns="http://www.w3.org/2000/svg" width="117.228" height="52.461" viewBox="0 0 117.228 52.461">
  <g id="Group_3361" data-name="Group 3361" transform="translate(-19 -13)">
    <g id="Group_2465" data-name="Group 2465" transform="translate(19 56.989)">
      <path id="Path_4304" data-name="Path 4304" d="M645.82,537.045v8.169h-1.134v-6.278a9.081,9.081,0,0,1-.492,1.134l-1.967,3.82h-1.122l-1.928-3.82q-.164-.315-.309-.611t-.234-.51v6.265h-1.109v-8.169h1.323l1.841,3.6a18.725,18.725,0,0,1,1,2.206,9.438,9.438,0,0,1,.385-.971q.245-.542.611-1.235l1.853-3.6Z" transform="translate(-637.526 -536.894)" fill="#fff"/>
      <path id="Path_4305" data-name="Path 4305" d="M667.066,544.924a2.733,2.733,0,0,1-1.122-1.217,4.084,4.084,0,0,1-.365-1.758v-4.9h1.16V541.7q0,2.66,2.294,2.659a2.012,2.012,0,0,0,1.7-.674,3.055,3.055,0,0,0,.524-1.91v-4.727h1.159v4.866a3.86,3.86,0,0,1-.453,1.973,2.7,2.7,0,0,1-1.23,1.128,4.231,4.231,0,0,1-1.771.353A3.707,3.707,0,0,1,667.066,544.924Z" transform="translate(-655.419 -536.894)" fill="#fff"/>
      <path id="Path_4306" data-name="Path 4306" d="M690.755,544.2h4.009v1.009H689.6v-8.169h1.159Z" transform="translate(-670.738 -536.894)" fill="#fff"/>
      <path id="Path_4307" data-name="Path 4307" d="M708.112,537.045v1.008h-2.824v7.16h-1.16v-7.16h-2.836v-1.008Z" transform="translate(-678.199 -536.894)" fill="#fff"/>
      <path id="Path_4308" data-name="Path 4308" d="M723.6,545.213v-8.169h1.159v8.169Z" transform="translate(-692.429 -536.894)" fill="#fff"/>
      <path id="Path_4309" data-name="Path 4309" d="M742.025,544.2h4.008v1.009h-5.168v-8.169h1.159Z" transform="translate(-703.44 -536.894)" fill="#fff"/>
      <path id="Path_4310" data-name="Path 4310" d="M759.776,544.23h4.008v.983h-5.168v-8.169h5.105v.983h-3.945v2.546h3.454l-.127.958h-3.327Z" transform="translate(-714.762 -536.894)" fill="#fff"/>
      <path id="Path_4311" data-name="Path 4311" d="M781.449,537.045h1.159v.076l-3.012,8.093h-1.412l-3-8.093v-.076h1.21l2.534,7.059Z" transform="translate(-725.33 -536.894)" fill="#fff"/>
      <path id="Path_4312" data-name="Path 4312" d="M800.289,544.23H804.3v.983h-5.169v-8.169h5.106v.983h-3.945v2.546h3.454l-.127.958h-3.327Z" transform="translate(-740.603 -536.894)" fill="#fff"/>
      <path id="Path_4313" data-name="Path 4313" d="M819.154,544.2h4.008v1.009h-5.168v-8.169h1.159Z" transform="translate(-752.637 -536.894)" fill="#fff"/>
      <path id="Path_4314" data-name="Path 4314" d="M849.63,540.421V544.4a7.977,7.977,0,0,1-1.4.523,6.134,6.134,0,0,1-1.526.17,4.132,4.132,0,0,1-2.218-.542,3.187,3.187,0,0,1-1.273-1.487,5.557,5.557,0,0,1-.4-2.194,4.925,4.925,0,0,1,.529-2.414,3.291,3.291,0,0,1,1.412-1.393,4.3,4.3,0,0,1,1.953-.441,5.359,5.359,0,0,1,1.463.189,4.972,4.972,0,0,1,1.261.555l-.5.882a4.315,4.315,0,0,0-.964-.447,3.755,3.755,0,0,0-1.167-.17,2.477,2.477,0,0,0-2.086.851,3.72,3.72,0,0,0-.662,2.339,4,4,0,0,0,.63,2.414,2.388,2.388,0,0,0,2.055.85,5,5,0,0,0,1.739-.315V541.4h-2.092l.126-.983Z" transform="translate(-768.465 -536.627)" fill="#fff"/>
      <path id="Path_4315" data-name="Path 4315" d="M872.542,545.138v.076h-1.336l-2.357-3.189h-1.21v3.189h-1.159v-8.169h2.66a3.883,3.883,0,0,1,1.62.3,2.213,2.213,0,0,1,1,.845,2.358,2.358,0,0,1,.334,1.26,2.588,2.588,0,0,1-.221,1.072,2.3,2.3,0,0,1-.662.851,2.776,2.776,0,0,1-1.1.523Zm-4.9-4.072h1.324a2.171,2.171,0,0,0,1.431-.41,1.428,1.428,0,0,0,.485-1.154,1.355,1.355,0,0,0-.448-1.1,1.989,1.989,0,0,0-1.317-.378h-1.475Z" transform="translate(-783.562 -536.894)" fill="#fff"/>
      <path id="Path_4316" data-name="Path 4316" d="M886.619,544.562a3.349,3.349,0,0,1-1.293-1.493,5.357,5.357,0,0,1-.435-2.231,4.774,4.774,0,0,1,.53-2.358,3.379,3.379,0,0,1,1.412-1.4,4.206,4.206,0,0,1,1.953-.454,3.849,3.849,0,0,1,2.079.536,3.356,3.356,0,0,1,1.293,1.494,5.357,5.357,0,0,1,.435,2.232,4.768,4.768,0,0,1-.53,2.357,3.38,3.38,0,0,1-1.412,1.4,4.207,4.207,0,0,1-1.953.454A3.847,3.847,0,0,1,886.619,544.562Zm3.573-.857a2.472,2.472,0,0,0,.895-1.128,4.382,4.382,0,0,0,.3-1.677,4.788,4.788,0,0,0-.284-1.721,2.467,2.467,0,0,0-.864-1.154,2.421,2.421,0,0,0-1.449-.416,2.585,2.585,0,0,0-1.494.41,2.47,2.47,0,0,0-.895,1.128,4.375,4.375,0,0,0-.3,1.676,4.789,4.789,0,0,0,.284,1.721,2.465,2.465,0,0,0,.864,1.153,2.418,2.418,0,0,0,1.449.416A2.585,2.585,0,0,0,890.192,543.705Z" transform="translate(-795.305 -536.627)" fill="#fff"/>
      <path id="Path_4317" data-name="Path 4317" d="M911.509,544.924a2.728,2.728,0,0,1-1.122-1.217,4.067,4.067,0,0,1-.366-1.758v-4.9h1.159V541.7q0,2.66,2.295,2.659a2.013,2.013,0,0,0,1.7-.674,3.056,3.056,0,0,0,.523-1.91v-4.727h1.16v4.866a3.859,3.859,0,0,1-.454,1.973,2.7,2.7,0,0,1-1.228,1.128,4.238,4.238,0,0,1-1.771.353A3.707,3.707,0,0,1,911.509,544.924Z" transform="translate(-811.335 -536.894)" fill="#fff"/>
      <path id="Path_4318" data-name="Path 4318" d="M938.412,537.354a2.232,2.232,0,0,1,1.021.87,2.464,2.464,0,0,1,.341,1.3,2.672,2.672,0,0,1-.347,1.349,2.463,2.463,0,0,1-1.047.964,3.735,3.735,0,0,1-1.72.359H935.2v3.013h-1.16v-8.169h2.722A3.986,3.986,0,0,1,938.412,537.354Zm-.347,3.435a1.51,1.51,0,0,0,.5-1.21,1.439,1.439,0,0,0-.461-1.154,2.042,2.042,0,0,0-1.367-.4H935.2v3.189h1.374A2.239,2.239,0,0,0,938.066,540.789Z" transform="translate(-826.654 -536.894)" fill="#fff"/>
    </g>
    <g id="Group_3355" data-name="Group 3355">
      <path id="Rectangle_2813" data-name="Rectangle 2813" d="M0,0H13.063a.99.99,0,0,1,.99.99V7.458a0,0,0,0,1,0,0H0a0,0,0,0,1,0,0V0A0,0,0,0,1,0,0Z" transform="translate(122.175 27.622)" fill="#fff"/>
      <g id="Group_3356" data-name="Group 3356" transform="translate(123.921 13.067)">
        <path id="Path_5932" data-name="Path 5932" d="M355.144,155.575a2.551,2.551,0,1,1-.747-1.8A2.45,2.45,0,0,1,355.144,155.575Zm-.31,0a2.249,2.249,0,1,0-.657,1.577A2.157,2.157,0,0,0,354.834,155.575Zm-3.272,1.371v-2.684h1.114a1.009,1.009,0,0,1,.68.2.658.658,0,0,1,.23.517.748.748,0,0,1-.173.477.913.913,0,0,1-.62.28.915.915,0,0,1,.434.3,2.324,2.324,0,0,1,.187.325q.126.248.27.585h-.4a3.668,3.668,0,0,0-.557-.974.966.966,0,0,0-.674-.19h-.15v1.164Zm.34-2.411v.967h.44a1.179,1.179,0,0,0,.694-.137.455.455,0,0,0,.156-.36.466.466,0,0,0-.123-.34q-.123-.13-.673-.13Z" transform="translate(-350.048 -153.027)" fill="#fff"/>
      </g>
      <g id="Group_3360" data-name="Group 3360">
        <path id="Path_5915" data-name="Path 5915" d="M315.482,190.533a29.919,29.919,0,0,1-7.115-.711,10.282,10.282,0,0,1-4.553-2.277,8.546,8.546,0,0,1-2.42-4.1,23.363,23.363,0,0,1-.711-6.232V166.2a23.44,23.44,0,0,1,.711-6.2,8.558,8.558,0,0,1,2.42-4.127,10.306,10.306,0,0,1,4.553-2.277,30.042,30.042,0,0,1,7.115-.711h5.267v7.458H315.88a13.859,13.859,0,0,0-3.217.313,3.838,3.838,0,0,0-3.073,2.988,11.885,11.885,0,0,0-.313,2.96v10.272a13.1,13.1,0,0,0,.313,3.159,3.7,3.7,0,0,0,1.081,1.906,4.28,4.28,0,0,0,2.05.94,16.6,16.6,0,0,0,3.159.255h4.9a15.8,15.8,0,0,0,3.074-.255,3.721,3.721,0,0,0,3.131-2.99,13.683,13.683,0,0,0,.34-3.358v-8.993h6.816l1.837,4.243v5.434a23.442,23.442,0,0,1-.711,6.232,8.563,8.563,0,0,1-2.42,4.1,10.306,10.306,0,0,1-4.581,2.277,30.6,30.6,0,0,1-7.2.711Z" transform="translate(-199.752 -139.883)" fill="#fff"/>
        <path id="Path_5916" data-name="Path 5916" d="M249.994,190.61a29.918,29.918,0,0,1-7.115-.711,10.3,10.3,0,0,1-4.553-2.277,8.546,8.546,0,0,1-2.42-4.1,23.365,23.365,0,0,1-.711-6.232V153.027h8.6V176.95a11.3,11.3,0,0,0,.312,2.874,4.089,4.089,0,0,0,1.112,1.934,4.663,4.663,0,0,0,2.134,1.112,14.063,14.063,0,0,0,3.388.34H264.06v7.4Z" transform="translate(-164.764 -139.959)" fill="#fff"/>
        <g id="Group_3359" data-name="Group 3359" transform="translate(19.269 13)">
          <path id="Path_5933" data-name="Path 5933" d="M173.935,171.743V158.178a5.3,5.3,0,0,0-5.295-5.295h-2.929l-.02,35.486Z" transform="translate(-146.9 -152.883)" fill="#fff"/>
          <g id="Group_3357" data-name="Group 3357" transform="translate(0 0.731)">
            <path id="Path_5934" data-name="Path 5934" d="M134.028,191.32l9.415-19.163.01-17.705-18.11,36.863Z" transform="translate(-125.342 -154.452)" fill="#fff"/>
          </g>
          <g id="Group_3358" data-name="Group 3358" transform="translate(18.53 0.002)">
            <path id="Path_5935" data-name="Path 5935" d="M173.609,190.485l18.639-37.594-4.681,0a6.517,6.517,0,0,0-4.938,2.295l-17.5,35.3h.261v.006Z" transform="translate(-165.129 -152.888)" fill="#fff"/>
            <path id="Path_5936" data-name="Path 5936" d="M206.1,171.248v19.806h8.574v-37.1Z" transform="translate(-187.019 -153.458)" fill="#fff"/>
          </g>
        </g>
      </g>
    </g>
  </g>
</svg>
